<?xml version="1.0" encoding="iso-8859-1"?>
<!-- Generator: Adobe Illustrator 19.0.0, SVG Export Plug-In . SVG Version: 6.00 Build 0)  -->
<svg version="1.1" id="Capa_1" xmlns="http://www.w3.org/2000/svg" xmlns:xlink="http://www.w3.org/1999/xlink" x="0px" y="0px"
	 viewBox="0 0 512 512" style="enable-background:new 0 0 512 512;" xml:space="preserve">
<g>
	<g>
		<path d="M502,260h-36V108c0-5.522-4.478-10-10-10h-19V68c0-5.522-4.478-10-10-10h-21V10c0-5.522-4.478-10-10-10H116
			c-5.522,0-10,4.478-10,10v48H86c-5.522,0-10,4.478-10,10v30H56c-5.522,0-10,4.478-10,10v152H10c-5.522,0-10,4.478-10,10v232
			c0,5.522,4.478,10,10,10h492c5.522,0,10-4.478,10-10V270C512,264.478,507.522,260,502,260z M417,78v20h-47
			c-5.522,0-10,4.478-10,10c0,5.522,4.478,10,10,10h76v20H342.248L326,104.691V78H417z M386,20v38h-62.513
			C318.849,47.416,308.276,40,296,40c-3.506,0-6.87,0.61-10,1.72c0-7.223,0.738-14.789-1.72-21.72H386z M307.013,111.384
			L319.996,138H286V70c0-5.514,4.486-10,10-10c5.514,0,10,4.486,10,10v37C306,108.52,306.347,110.019,307.013,111.384z M246,70V30
			c0-5.514,4.486-10,10-10c5.514,0,10,4.486,10,10v40v68h-20V70z M126,20c0,0,101.681,0,101.718,0
			c-1.867,0.016-2.654,21.388-1.718,21.72c-3.13-1.11-6.495-1.72-10-1.72c-12.276,0-22.849,7.416-27.487,18H126V20z M226,70v68
			h-34.08l13.089-27.158c0.652-1.354,0.991-2.839,0.991-4.342V70c0-5.514,4.486-10,10-10C221.514,60,226,64.486,226,70z M66,118
			c0,0,76.836,0,77,0c12.909,0,12.932-20,0-20H96V78h90v26.216L169.718,138H66V118z M66,158h380v102H66V158z M246,492h-60V362h60
			V492z M326,492h-60V362h60V492z M492,300H296c-5.521,0-10,4.49-10,10s4.479,10,10,10h196v172H346V352c0-5.522-4.478-10-10-10H176
			c-5.522,0-10,4.478-10,10v140H20V320h196c5.51,0,10-4.49,10-10s-4.49-10-10-10H20v-20h472V300z"/>
	</g>
</g>
<g>
	<g>
		<path d="M130.632,216.861c-4.381,0-6.69,1.41-6.929,4.229c-0.48,4.995-2.334,9-7.92,9c-5.461,0-8.19-2.999-8.19-9v-23.85
			c-0.001-5.998,2.699-8.999,8.099-8.999c5.16,0,7.83,2.7,8.011,8.1c0.18,2.821,2.52,4.23,7.02,4.23c4.478,0,7.021-1.995,7.021-6.66
			c0-12.25-11.83-17.91-22.59-17.91c-12.879,0-21.601,8.444-21.601,21.24c0,0.044,0,23.85,0,23.85c0,12.884,8.64,21.24,21.601,21.24
			c11.211,0,22.59-6.4,22.589-18.811C137.743,218.845,135.07,216.861,130.632,216.861z"/>
	</g>
</g>
<g>
	<g>
		<path d="M158.622,176.001c-2.564,0-7.02,0.901-7.02,4.233c0,0.477,0,57.237,0,57.237c0,3.404,4.512,4.319,7.02,4.319
			c2.6,0,7.021-0.955,7.021-4.322c0-0.468,0-57.237,0-57.237C165.642,176.902,161.224,176.001,158.622,176.001z"/>
	</g>
</g>
<g>
	<g>
		<path d="M221.082,176.001c-2.567,0-7.021,0.902-7.021,4.232c0,0.256,0,30.598,0,30.598l-14.58-27.81
			c-2.448-4.713-4.833-7.02-10.347-7.021c-2.598,0-7.023,0.978-7.023,4.323c0,0.452,0,57.148,0,57.148
			c0,3.421,4.352,4.319,7.02,4.319c2.664,0,7.02-0.902,7.02-4.321c0-0.249,0-30.599,0-30.599l17.101,31.141
			c1.379,2.52,3.989,3.779,7.83,3.779c2.608,0,7.02-0.981,7.02-4.319c0-0.037,0-57.24,0-57.24
			C228.101,176.866,223.701,176.001,221.082,176.001z"/>
	</g>
</g>
<g>
	<g>
		<path d="M282.73,229.551c-0.078,0-24.12,0-24.12,0v-15.3h13.5c2.839,0,4.231-2.756,4.23-5.311c0-2.471-1.379-5.489-4.231-5.489
			c-0.128,0-13.499,0-13.499,0v-15.21h24.12c3.145,0,4.23-3.621,4.23-6.209c0-2.514-1.206-6.031-4.231-6.031
			c-0.194,0-32.039,0-32.039,0c-2.572,0-6.12,1.226-6.12,4.322c0,0.318,0,57.149,0,57.149c0,3.167,3.468,4.319,6.12,4.319h32.041
			c3.156,0,4.23-3.517,4.23-6.029C286.961,233.194,285.889,229.551,282.73,229.551z"/>
	</g>
</g>
<g>
	<g>
		<path d="M347.168,176.001c-5.309,0-8.383,2.641-10.889,7.021c-0.021,0.037-9.27,16.2-9.27,16.2l-9.271-16.2
			c-2.593-4.56-5.568-7.021-10.89-7.021c-4.267,0-7.02,2.925-7.02,7.021c0,0.168,0,54.45,0,54.45c0,3.422,4.356,4.319,7.02,4.319
			c2.604,0,7.02-0.973,7.02-4.322c0-0.346,0-34.648,0-34.648l8.551,15.66c1.826,3.535,7.141,3.329,9.09,0
			c0.06-0.102,8.639-14.759,8.639-14.759v33.75c0,3.363,4.524,4.319,7.021,4.319c2.624,0,7.019-0.915,7.019-4.322
			c0-0.401,0-54.448,0-54.448C354.189,178.91,351.365,176,347.168,176.001z"/>
	</g>
</g>
<g>
	<g>
		<path d="M401.439,180.142c-1.159-3.612-5.853-4.681-9.181-4.681c-3.275,0-8.079,1.068-9.181,4.682
			c-0.101,0.33-16.869,55.573-16.873,55.891c-0.056,3.896,5.728,5.757,8.955,5.757c2.579,0,4.108-0.869,4.59-2.609l3.06-11.25h18.99
			l3.06,11.25c0.479,1.74,2.01,2.609,4.59,2.609c3.112,0,9.008-1.836,9-5.761C418.449,235.849,401.439,180.142,401.439,180.142z
			 M385.688,217.131l6.57-24.119l6.569,24.119H385.688z"/>
	</g>
</g>
<g>
	<g>
		<path d="M256,300c-5.521,0-10,4.49-10,10s4.479,10,10,10c5.51,0,10-4.49,10-10S261.51,300,256,300z"/>
	</g>
</g>
<g>
	<g>
		<path d="M130,362H50c-5.522,0-10,4.478-10,10v80c0,5.522,4.478,10,10,10h80c5.522,0,10-4.478,10-10v-80
			C140,366.478,135.522,362,130,362z M120,442H60v-20h60V442z M120,402H60v-20h60V402z"/>
	</g>
</g>
<g>
	<g>
		<path d="M462,362h-80c-5.522,0-10,4.478-10,10v80c0,5.522,4.478,10,10,10h80c5.522,0,10-4.478,10-10v-80
			C472,366.478,467.522,362,462,362z M452,442h-60v-20h60V442z M452,402h-60v-20h60V402z"/>
	</g>
</g>
<g>
</g>
<g>
</g>
<g>
</g>
<g>
</g>
<g>
</g>
<g>
</g>
<g>
</g>
<g>
</g>
<g>
</g>
<g>
</g>
<g>
</g>
<g>
</g>
<g>
</g>
<g>
</g>
<g>
</g>
</svg>
